<svg id="Layer_1" enable-background="new 0 0 512 512" height="512" viewBox="0 0 512 512" width="512" xmlns="http://www.w3.org/2000/svg"><g><g><g><g><path d="m512 256c0-9.461-.513-18.802-1.513-27.997l-45.701-120.174c-34.249-48.173-84.753-83.983-143.512-99.432h-130.547c-58.76 15.448-109.264 51.259-143.513 99.431l-45.701 120.175c-1 9.195-1.513 18.536-1.513 27.997 0 54.714 31.834 118.767 61.072 160.372l98.358 67.497c29.8 12.147 62.403 18.84 96.57 18.84s66.77-6.693 96.57-18.84l98.142-66.807c29.238-41.604 61.288-106.347 61.288-161.062z" fill="#2d4456"/></g><g fill="#253847"><path d="m461.618 389.935-3.633 13.082h7.601c29.238-41.605 46.414-92.302 46.414-147.017 0-3.112-.076-6.205-.186-9.29-1.912 53.568-20.28 102.944-50.201 143.224.001.001.003.001.005.001z"/><path d="m50.382 389.935c.002 0 .004-.001.005-.001-29.922-40.28-48.29-89.656-50.202-143.224-.109 3.085-.185 6.178-.185 9.29 0 54.715 17.176 105.412 46.414 147.017l7.227.427z"/><path d="m352.562 493.142.007-9.273-21.835-1.535c-23.641 7.207-48.734 11.085-74.734 11.085s-51.093-3.878-74.735-11.084l-21.835 1.535.007 9.273c29.801 12.147 62.396 18.857 96.563 18.857s66.762-6.71 96.562-18.858z"/></g><g fill="#e4eef9"><path d="m319.548 191.476 29.41 90.514c.618 1.902 2.28 3.276 4.265 3.526l86.587 10.889c1.589.2 3.181-.349 4.309-1.487l66.351-66.914c-4.838-44.469-21.048-85.523-45.685-120.176l-88.404-2.644c-1.8-.054-3.498.834-4.48 2.343l-51.77 79.538c-.85 1.308-1.064 2.929-.583 4.411z"/><path d="m208.325 179.665h95.349c1.746 0 3.373-.883 4.326-2.346l51.124-78.546c.956-1.469 1.102-3.324.385-4.924l-38.239-85.44c-20.839-5.479-42.711-8.409-65.27-8.409s-44.431 2.93-65.27 8.409l-38.239 85.441c-.716 1.6-.571 3.455.385 4.924l51.124 78.546c.952 1.463 2.579 2.345 4.325 2.345z"/><path d="m163.041 281.991 29.41-90.514c.482-1.483.268-3.104-.583-4.41l-51.77-79.538c-.982-1.509-2.68-2.397-4.48-2.343l-88.404 2.644c-24.637 34.651-40.847 75.705-45.684 120.175l66.351 66.914c1.128 1.137 2.72 1.687 4.309 1.487l86.587-10.889c1.984-.25 3.646-1.624 4.264-3.526z"/><path d="m246.13 356.267-75.938-55.172c-1.061-.771-2.376-1.109-3.678-.945l-89.103 11.205c-2.021.254-3.704 1.674-4.295 3.623l-22.735 74.958 3.259 13.509c28.057 39.924 105.796 83.792 105.796 83.792l21.842-4.907 64.108-31.741c1.758-.871 2.871-2.663 2.871-4.625v-85.519c.001-1.655-.79-3.207-2.127-4.178z"/><path d="m345.486 300.149c-1.302-.164-2.617.174-3.678.945l-75.938 55.172c-1.337.971-2.127 2.523-2.127 4.176v85.519c0 1.962 1.113 3.755 2.871 4.625l85.949 42.556c45.794-18.666 84.966-50.201 113.023-90.125l-26.703-88.04c-.591-1.949-2.274-3.369-4.295-3.623z"/></g><g fill="#d5e0f2"><path d="m50.382 389.935-3.968 13.082c28.057 39.924 67.23 71.459 113.023 90.125l21.841-10.814c-52.962-16.139-98.64-48.978-130.896-92.393z"/><path d="m330.721 482.328 21.841 10.814c45.794-18.666 84.966-50.201 113.023-90.125l-3.968-13.082c-32.255 43.415-77.933 76.254-130.896 92.393z"/></g></g></g><path d="" style="fill:none;stroke:#000;stroke-width:15;stroke-linecap:round;stroke-linejoin:round;stroke-miterlimit:10"/></g></svg>